HIERARCHY
ROOT Hips
{
  OFFSET 5.80788e-005 67.184 3.4734
  CHANNELS 6 Xposition Yposition Zposition Zrotation Xrotation Yrotation
  JOINT Chest
  {
    OFFSET 0 8.7983 -4.7612
    CHANNELS 3 Zrotation Xrotation Yrotation
    JOINT Chest2
    {
      OFFSET 0 8.0291 0.4195
      CHANNELS 3 Zrotation Xrotation Yrotation
      JOINT Chest3
      {
        OFFSET 0 9.9351 -2.2114
        CHANNELS 3 Zrotation Xrotation Yrotation
        JOINT Neck
        {
          OFFSET 0 22.3885 -0.4656
          CHANNELS 3 Zrotation Xrotation Yrotation
          JOINT Head
          {
            OFFSET -0.0001 12.643 3.4389
            CHANNELS 3 Zrotation Xrotation Yrotation
            End Site
            {
              OFFSET 0.0001 17.6655 0.5274
            }
          }
        }
        JOINT LeftCollar
        {
          OFFSET 2.2603 21.606 7.4023
          CHANNELS 3 Zrotation Xrotation Yrotation
          JOINT LeftShoulder
          {
            OFFSET 13.5163 -1.1332 -5.0146
            CHANNELS 3 Zrotation Xrotation Yrotation
            JOINT LeftElbow
            {
              OFFSET -0.0995 -28.05 -0.2431
              CHANNELS 3 Zrotation Xrotation Yrotation
              JOINT LeftWrist
              {
                OFFSET 0.0679 -23.3996 -0.1402
                CHANNELS 3 Zrotation Xrotation Yrotation
                JOINT LeftFinger1
                {
                  OFFSET 0.7932 -9.069 2.5189
                  CHANNELS 3 Zrotation Xrotation Yrotation
                  JOINT LeftFinger11
                  {
                    OFFSET -0.8272 -3.3923 0.5977
                    CHANNELS 3 Zrotation Xrotation Yrotation
                    JOINT LeftFinger12
                    {
                      OFFSET -0.5649 -2.3158 0.4082
                      CHANNELS 3 Zrotation Xrotation Yrotation
                      End Site
                      {
                        OFFSET -0.4919 -1.6479 0.2673
                      }
                    }
                  }
                }
                JOINT LeftFinger2
                {
                  OFFSET 0.9159 -9.2044 0.2193
                  CHANNELS 3 Zrotation Xrotation Yrotation
                  JOINT LeftFinger21
                  {
                    OFFSET 0.0117 -4.1944 -0.0248
                    CHANNELS 3 Zrotation Xrotation Yrotation
                    JOINT LeftFinger22
                    {
                      OFFSET 0.0071 -2.3249 -0.0142
                      CHANNELS 3 Zrotation Xrotation Yrotation
                      End Site
                      {
                        OFFSET -0.1475 -2.0882 0.0028
                      }
                    }
                  }
                }
                JOINT LeftFinger3
                {
                  OFFSET 0.6113 -8.7231 -2.0637
                  CHANNELS 3 Zrotation Xrotation Yrotation
                  JOINT LeftFinger31
                  {
                    OFFSET -0.1927 -3.8059 -0.2383
                    CHANNELS 3 Zrotation Xrotation Yrotation
                    JOINT LeftFinger32
                    {
                      OFFSET -0.1091 -2.1688 -0.1362
                      CHANNELS 3 Zrotation Xrotation Yrotation
                      End Site
                      {
                        OFFSET -0.2358 -1.9176 -0.0906
                      }
                    }
                  }
                }
                JOINT LeftFinger4
                {
                  OFFSET -0.6151 -8.0947 -3.5641
                  CHANNELS 3 Zrotation Xrotation Yrotation
                  JOINT LeftFinger41
                  {
                    OFFSET -0.4882 -2.341 -0.6462
                    CHANNELS 3 Zrotation Xrotation Yrotation
                    JOINT LeftFinger42
                    {
                      OFFSET -0.3575 -1.7167 -0.4742
                      CHANNELS 3 Zrotation Xrotation Yrotation
                      End Site
                      {
                        OFFSET -0.4187 -1.5237 -0.3496
                      }
                    }
                  }
                }
                JOINT LeftFinger0
                {
                  OFFSET -1.42 -1.8761 1.4223
                  CHANNELS 3 Zrotation Xrotation Yrotation
                  JOINT LeftFinger01
                  {
                    OFFSET -1.1471 -3.4929 2.6334
                    CHANNELS 3 Zrotation Xrotation Yrotation
                    JOINT LeftFinger02
                    {
                      OFFSET -0.823 -2.3 1.6571
                      CHANNELS 3 Zrotation Xrotation Yrotation
                      End Site
                      {
                        OFFSET -0.5822 -1.6914 1.1582
                      }
                    }
                  }
                }
              }
            }
          }
        }
        JOINT RightCollar
        {
          OFFSET -2.2603 21.606 7.4023
          CHANNELS 3 Zrotation Xrotation Yrotation
          JOINT RightShoulder
          {
            OFFSET -13.5187 -1.1334 -5.0155
            CHANNELS 3 Zrotation Xrotation Yrotation
            JOINT RightElbow
            {
              OFFSET 0.0994 -28.0499 -0.2431
              CHANNELS 3 Zrotation Xrotation Yrotation
              JOINT RightWrist
              {
                OFFSET -0.0679 -23.3996 -0.1402
                CHANNELS 3 Zrotation Xrotation Yrotation
                JOINT RightFinger1
                {
                  OFFSET -0.7932 -9.0691 2.5189
                  CHANNELS 3 Zrotation Xrotation Yrotation
                  JOINT RightFinger11
                  {
                    OFFSET 0.8272 -3.3923 0.5977
                    CHANNELS 3 Zrotation Xrotation Yrotation
                    JOINT RightFinger12
                    {
                      OFFSET 0.565 -2.3158 0.4082
                      CHANNELS 3 Zrotation Xrotation Yrotation
                      End Site
                      {
                        OFFSET 0.4919 -1.6479 0.2673
                      }
                    }
                  }
                }
                JOINT RightFinger2
                {
                  OFFSET -0.916 -9.2044 0.2193
                  CHANNELS 3 Zrotation Xrotation Yrotation
                  JOINT RightFinger21
                  {
                    OFFSET -0.0117 -4.1944 -0.0248
                    CHANNELS 3 Zrotation Xrotation Yrotation
                    JOINT RightFinger22
                    {
                      OFFSET -0.0071 -2.3249 -0.0142
                      CHANNELS 3 Zrotation Xrotation Yrotation
                      End Site
                      {
                        OFFSET 0.1475 -2.0882 0.0028
                      }
                    }
                  }
                }
                JOINT RightFinger3
                {
                  OFFSET -0.6113 -8.7231 -2.0637
                  CHANNELS 3 Zrotation Xrotation Yrotation
                  JOINT RightFinger31
                  {
                    OFFSET 0.1927 -3.8059 -0.2383
                    CHANNELS 3 Zrotation Xrotation Yrotation
                    JOINT RightFinger32
                    {
                      OFFSET 0.1091 -2.1688 -0.1362
                      CHANNELS 3 Zrotation Xrotation Yrotation
                      End Site
                      {
                        OFFSET 0.2358 -1.9176 -0.0906
                      }
                    }
                  }
                }
                JOINT RightFinger4
                {
                  OFFSET 0.6151 -8.0947 -3.564
                  CHANNELS 3 Zrotation Xrotation Yrotation
                  JOINT RightFinger41
                  {
                    OFFSET 0.4882 -2.341 -0.6462
                    CHANNELS 3 Zrotation Xrotation Yrotation
                    JOINT RightFinger42
                    {
                      OFFSET 0.3574 -1.7166 -0.4742
                      CHANNELS 3 Zrotation Xrotation Yrotation
                      End Site
                      {
                        OFFSET 0.4187 -1.5237 -0.3496
                      }
                    }
                  }
                }
                JOINT RightFinger0
                {
                  OFFSET 1.4199 -1.8761 1.4221
                  CHANNELS 3 Zrotation Xrotation Yrotation
                  JOINT RightFinger01
                  {
                    OFFSET 1.1472 -3.4929 2.6336
                    CHANNELS 3 Zrotation Xrotation Yrotation
                    JOINT RightFinger02
                    {
                      OFFSET 0.8229 -2.3 1.6571
                      CHANNELS 3 Zrotation Xrotation Yrotation
                      End Site
                      {
                        OFFSET 0.5822 -1.6914 1.1582
                      }
                    }
                  }
                }
              }
            }
          }
        }
      }
    }
  }
  JOINT RightHip
  {
    OFFSET -9.412 3.9771 -0.7758
    CHANNELS 3 Zrotation Xrotation Yrotation
    JOINT RightKnee
    {
      OFFSET -0.7531 -40.938 0
      CHANNELS 3 Zrotation Xrotation Yrotation
      JOINT RightAnkle
      {
        OFFSET 0 -40.1986 0
        CHANNELS 3 Zrotation Xrotation Yrotation
        JOINT RightToe
        {
          OFFSET 0 -4.4182 9.239
          CHANNELS 3 Zrotation Xrotation Yrotation
          End Site
          {
            OFFSET 0 0 6.1981
          }
        }
      }
    }
  }
  JOINT LeftHip
  {
    OFFSET 9.4119 3.9773 -0.7758
    CHANNELS 3 Zrotation Xrotation Yrotation
    JOINT LeftKnee
    {
      OFFSET 0.7532 -40.9383 0
      CHANNELS 3 Zrotation Xrotation Yrotation
      JOINT LeftAnkle
      {
        OFFSET 0 -40.1986 0
        CHANNELS 3 Zrotation Xrotation Yrotation
        JOINT LeftToe
        {
          OFFSET 0 -4.4182 9.239
          CHANNELS 3 Zrotation Xrotation Yrotation
          End Site
          {
            OFFSET 0 0 6.1981
          }
        }
      }
    }
  }
}
MOTION
Frames:	4
Frame Time:	0.0333333
5.80788e-005 67.184 3.4734 0 0 -0 0 0 -0 0 0 -0 0 0 -0 0 0 -0 0 0 -0 0 0 -12.5014 88.1196 14.2451 10.6914 -0.00160068 -0.00239207 0.000740045 -8.4365e-005 7.00714e-005 -9.52055e-007 9.93923e-017 -1.98785e-016 -1.59028e-015 9.93923e-017 -5.96354e-016 -1.59028e-015 -9.93923e-017 -5.96354e-016 -1.59028e-015 9.93923e-017 -1.98785e-016 -1.59028e-015 -0.0128176 0.00232552 8.52707e-005 9.93923e-017 5.96354e-016 -0 9.93923e-017 -1.98785e-016 -1.59028e-015 -0.0160551 0.00299681 0.000857156 -2.48481e-016 0 3.18055e-015 9.93923e-017 -1.98785e-016 -1.59028e-015 -0.0125865 0.0031206 0.00282719 0 1.98785e-016 -0 9.93923e-017 -1.98785e-016 -1.59028e-015 9.93923e-017 -5.96354e-016 -1.59028e-015 -9.93923e-017 -5.96354e-016 -1.59028e-015 -0.865644 0.16582 7.03859 -88.0329 10.2057 -10.5567 0.0015593 -0.00248883 -0.000788628 7.87605e-005 4.10553e-005 1.24965e-005 -3.97569e-016 -7.95139e-016 3.18055e-015 -1.98785e-016 -3.97569e-016 3.18055e-015 -1.98785e-016 0 3.18055e-015 -3.97569e-016 -7.95139e-016 3.18055e-015 0.0129473 0.00231697 -8.70038e-005 9.93923e-017 -7.95139e-016 1.59028e-015 -3.97569e-016 -7.95139e-016 3.18055e-015 0.0163314 0.00303369 -0.000872333 3.97569e-016 7.95139e-016 -3.18055e-015 -3.97569e-016 -7.95139e-016 3.18055e-015 0.0145763 0.00367772 -0.00326275 9.93923e-017 -3.97569e-016 -0 -3.97569e-016 -7.95139e-016 3.18055e-015 -1.98785e-016 -3.97569e-016 3.18055e-015 -1.98785e-016 0 3.18055e-015 3.42485 1.36937 -0.0640303 0.000136572 0.69354 0.00145564 -3.42573 -2.06297 -0.0607933 -3.19502e-024 0 -1.48106e-024 -3.42498 1.36123 0.0639712 -6.769e-005 0.712612 -0.0012277 3.42582 -2.07388 0.0612819 2.55305e-023 0 -2.31416e-026 
-5.96811e-005 0.324348 9.11821 180 -76.2114 180 -0.0428263 0.884389 -0.155703 -0.0832627 1.7689 -0.310797 -0.0832634 1.76889 -0.310799 2.48599e-005 42.4977 -5.31186e-005 0.0156897 9.48352 0.0166733 -24.8213 8.17833 -16.6731 39.1251 -23.6177 32.8923 -6.71811 1.42988 -37.0084 -55.9562 12.3885 67.7153 1.06081e-005 2.31565e-005 -3.45725e-006 1.59028e-014 0 1.59028e-015 1.90833e-014 3.18055e-015 1.59028e-015 1.06081e-005 2.31565e-005 -3.45725e-006 -0.0128333 0.00233 9.09078e-005 -6.36111e-015 6.36111e-015 4.77083e-015 1.06081e-005 2.31565e-005 -3.45725e-006 -0.0160749 0.00299007 0.000857883 -9.54166e-015 6.36111e-015 7.95139e-015 1.06081e-005 2.31565e-005 -3.45725e-006 -0.0125889 0.00312345 0.00282589 -6.36111e-015 9.54166e-015 4.77083e-015 1.06081e-005 2.31565e-005 -3.45725e-006 1.59028e-014 0 1.59028e-015 1.90833e-014 3.18055e-015 1.59028e-015 26.4631 8.0881 12.9196 -38.6183 -24.536 -29.1984 4.97954 1.10941 37.006 58.4769 14.2197 -65.9228 -6.36111e-015 0 -3.18055e-015 -3.03798e-007 -7.52044e-007 -5.35389e-006 6.36111e-015 -3.18055e-015 -0 -6.36111e-015 0 -3.18055e-015 0.0129586 0.00231978 -9.42846e-005 -6.36111e-015 -3.18055e-015 -3.18055e-015 -6.36111e-015 0 -3.18055e-015 0.0162866 0.00306086 -0.000878435 0 0 -0 -6.36111e-015 0 -3.18055e-015 0.0145869 0.00367252 -0.00326212 6.36111e-015 3.18055e-015 -6.36111e-015 -6.36111e-015 0 -3.18055e-015 -3.03798e-007 -7.52044e-007 -5.35389e-006 6.36111e-015 -3.18055e-015 -0 -24.5962 -18.9667 -51.6713 -77.8358 53.5859 63.5605 4.62006 13.653 -12.168 3.88817e-006 -4.80125e-007 4.34918e-006 24.5755 -18.974 51.648 77.79 53.6093 -63.5106 -4.62928 13.6657 12.1522 -3.18055e-015 -9.54166e-015 3.18055e-015 
-6.62276e-005 4.4392 9.59396 180 -83.5498 180 -0.0369037 0.445645 -0.147595 -0.0726634 0.891381 -0.294919 -0.0726627 0.891374 -0.294916 5.00823e-005 39.9979 -0.000111739 0.072701 8.64446 0.0762378 -22.5425 8.73988 -15.3781 40.8759 -21.6182 31.286 -7.12655 1.49063 -34.8544 -51.9703 11.8631 63.1836 9.26538e-006 1.47257e-005 -2.60266e-006 9.54166e-015 3.18055e-015 -4.77083e-015 3.18055e-015 6.36111e-015 -3.18055e-015 9.26538e-006 1.47257e-005 -2.60266e-006 -0.0128397 0.00231467 8.52844e-005 -1.27222e-014 -3.18055e-015 -0 9.26538e-006 1.47257e-005 -2.60266e-006 -0.0160489 0.00297403 0.000848771 -1.76556e-031 -3.18055e-015 -3.18055e-015 9.26538e-006 1.47257e-005 -2.60266e-006 -0.0126152 0.00312918 0.00283039 3.18055e-015 0 -3.18055e-015 9.26538e-006 1.47257e-005 -2.60266e-006 9.54166e-015 3.18055e-015 -4.77083e-015 3.18055e-015 6.36111e-015 -3.18055e-015 23.8485 8.66847 11.3893 -40.3709 -22.8427 -27.6914 5.55951 1.19971 34.876 54.2399 13.5125 -61.5142 -9.54166e-015 -3.18055e-015 -3.18055e-015 -5.85119e-006 7.06706e-007 2.33428e-006 2.64834e-031 -3.18055e-015 4.77083e-015 -9.54166e-015 -3.18055e-015 -3.18055e-015 0.0129554 0.00230801 -7.83715e-005 0 0 -0 -9.54166e-015 -3.18055e-015 -3.18055e-015 0.0163555 0.00303692 -0.000878611 3.18055e-015 -3.18055e-015 -0 -9.54166e-015 -3.18055e-015 -3.18055e-015 0.0145654 0.00367017 -0.00324936 0 0 -1.59028e-015 -9.54166e-015 -3.18055e-015 -3.18055e-015 -5.85119e-006 7.06706e-007 2.33428e-006 2.64834e-031 -3.18055e-015 4.77083e-015 -22.0223 -19.6521 -48.4854 -69.3132 53.096 56.7921 4.1933 12.6749 -11.5002 3.18055e-015 6.36111e-015 3.18055e-015 22.0025 -19.6582 48.4637 69.2675 53.1143 -56.7412 -4.20127 12.6868 11.4855 -7.4203e-006 -5.20083e-007 -5.53394e-007 
-7.29305e-005 4.58955 9.67933 180 -84.7158 180 -0.0351862 0.0796816 -0.148411 -0.070164 0.159425 -0.296764 -0.070164 0.159434 -0.296764 -0.000777515 39.9969 0.00168805 0.127543 8.37871 0.133719 -21.751 9.73735 -14.4002 40.1109 -22.0186 30.9701 -7.87766 1.62478 -34.8887 -51.2954 11.9222 62.8814 -3.18055e-015 0 3.18055e-015 -5.73922e-008 4.64846e-006 1.31294e-005 3.18055e-015 0 -3.18055e-015 -3.18055e-015 0 3.18055e-015 -0.0128332 0.00232013 9.25443e-005 -0 0 1.59028e-015 -3.18055e-015 0 3.18055e-015 -0.0160042 0.00299589 0.000870422 3.18055e-015 0 -1.59028e-015 -3.18055e-015 0 3.18055e-015 -0.012586 0.00311748 0.00284097 6.36111e-015 -3.18055e-015 -0 -3.18055e-015 0 3.18055e-015 -5.73922e-008 4.64846e-006 1.31294e-005 3.18055e-015 0 -3.18055e-015 22.8688 9.6747 10.2906 -39.4191 -23.2794 -27.2574 6.38745 1.34552 34.926 53.478 13.4668 -61.2776 3.18055e-015 0 4.77083e-015 3.18055e-015 -3.18055e-015 3.18055e-015 -3.18055e-015 -3.18055e-015 6.36111e-015 3.18055e-015 0 4.77083e-015 0.0129344 0.00231625 -8.19043e-005 -6.36111e-015 6.36111e-015 -3.18055e-015 3.18055e-015 0 4.77083e-015 0.0163335 0.00302342 -0.000872088 2.64834e-031 3.18055e-015 -4.77083e-015 3.18055e-015 0 4.77083e-015 0.0145921 0.00366834 -0.0032681 3.18055e-015 -3.18055e-015 1.59028e-015 3.18055e-015 0 4.77083e-015 3.18055e-015 -3.18055e-015 3.18055e-015 -3.18055e-015 -3.18055e-015 6.36111e-015 -22.0085 -20.5633 -48.6116 -69.284 53.0907 56.7682 4.5002 12.5578 -11.686 4.62912e-006 -6.6657e-007 1.3752e-006 21.9883 -20.5692 48.5902 69.238 53.109 -56.717 -4.50738 12.57 11.6712 3.34608e-008 8.76612e-006 -1.82172e-005 
